<svg width="608" height="530" xmlns="http://www.w3.org/2000/svg" xmlns:xlink="http://www.w3.org/1999/xlink" overflow="hidden"><defs><clipPath id="clip0"><rect x="2013" y="949" width="608" height="530"/></clipPath></defs><g clip-path="url(#clip0)" transform="translate(-2013 -949)"><path d="M2018 1136 2018 1214.21 2018 1214.21 2018.21 1221.72 2018.42 1225.68 2019.04 1229.22 2019.88 1232.77 2020.71 1235.69 2021.76 1238.61 2022.8 1241.74 2024.47 1244.24 2026.35 1246.33 2028.64 1248.2 2030.94 1249.87 2033.86 1251.33 2036.78 1252.37 2040.33 1252.79 2044.08 1252.79 2044.08 1370 2122.13 1370 2122.13 1252.79 2122.13 1252.79 2125.88 1252.79 2129.43 1252.37 2132.35 1251.33 2135.27 1249.87 2137.57 1248.2 2139.86 1246.33 2141.53 1244.24 2143.2 1241.32 2144.45 1238.61 2145.5 1235.69 2146.33 1232.77 2146.96 1229.22 2147.58 1225.68 2147.79 1221.72 2148 1214.21 2148 1136 2018 1136Z" stroke="#EEAD0E" stroke-width="10.3125" stroke-linejoin="round" stroke-miterlimit="10" fill="none" fill-rule="evenodd"/><path d="M2486 1136 2486 1214.21 2486 1214.21 2486.21 1221.72 2486.42 1225.68 2487.04 1229.22 2487.67 1232.77 2488.5 1235.69 2489.55 1238.61 2490.8 1241.74 2492.47 1244.24 2494.14 1246.33 2496.43 1248.2 2498.73 1249.87 2501.65 1251.33 2504.57 1252.37 2508.12 1252.79 2511.87 1252.79 2511.87 1370 2590.13 1370 2590.13 1252.79 2590.13 1252.79 2593.88 1252.79 2597.22 1252.37 2600.14 1251.33 2603.06 1249.87 2605.36 1248.2 2607.65 1246.33 2609.53 1244.24 2611.2 1241.32 2612.24 1238.61 2613.29 1235.69 2614.12 1232.77 2614.96 1229.22 2615.58 1225.68 2615.79 1221.72 2616 1214.21 2616 1136 2486 1136Z" stroke="#EEAD0E" stroke-width="10.3125" stroke-linejoin="round" stroke-miterlimit="10" fill="none" fill-rule="evenodd"/><path d="M2226 1136 2408 1136 2408 1265.9 2408 1265.9 2407.79 1271.12 2406.96 1276.33 2405.91 1281.33 2404.03 1286.13 2401.74 1290.93 2399.23 1294.89 2396.31 1299.06 2392.76 1302.6 2389.22 1306.15 2385.04 1309.07 2380.66 1311.57 2376.28 1313.86 2371.47 1315.74 2366.47 1316.99 2361.25 1317.62 2356.03 1317.82 2356.03 1474 2277.97 1474 2277.97 1317.82 2277.97 1317.82 2272.75 1317.62 2267.53 1316.99 2262.53 1315.74 2257.73 1313.86 2253.34 1311.57 2248.96 1309.07 2244.78 1306.15 2241.24 1302.6 2237.69 1299.06 2234.77 1294.89 2232.26 1290.93 2229.97 1286.13 2228.09 1281.33 2227.04 1276.33 2226.21 1271.12 2226 1265.9 2226 1136Z" stroke="#EEAD0E" stroke-width="10.3125" stroke-linejoin="round" stroke-miterlimit="10" fill="none" fill-rule="evenodd"/><path d="M2122 1045.1 2122 1045.1 2121.58 1049.06 2121.17 1053.01 2120.33 1056.54 2118.87 1060.08 2117.2 1063.62 2115.33 1066.94 2112.82 1069.86 2110.53 1072.56 2107.82 1075.06 2104.69 1077.14 2101.35 1079.01 2098.22 1080.67 2094.68 1082.13 2090.72 1083.17 2086.96 1083.79 2082.79 1084 2082.79 1084 2082.79 1084 2079.04 1083.79 2075.28 1083.17 2071.32 1082.13 2067.78 1080.67 2064.23 1079.01 2061.1 1077.14 2057.97 1075.06 2055.26 1072.56 2052.76 1069.86 2050.67 1066.94 2048.8 1063.62 2047.13 1060.08 2045.67 1056.54 2044.63 1053.01 2044 1049.06 2044 1045.1 2044 1045.1 2044 1045.1 2044 1040.94 2044.63 1037.2 2045.67 1033.25 2047.13 1029.71 2048.8 1026.59 2050.67 1023.26 2052.76 1020.35 2055.26 1017.44 2057.97 1015.15 2061.1 1012.86 2064.23 1010.78 2067.78 1009.12 2071.32 1008.08 2075.28 1006.83 2079.04 1006.42 2082.79 1006 2082.79 1006 2082.79 1006 2086.96 1006.42 2090.72 1006.83 2094.68 1008.08 2098.22 1009.12 2101.35 1010.78 2104.69 1012.86 2107.82 1015.15 2110.53 1017.44 2112.82 1020.35 2115.33 1023.26 2117.2 1026.59 2118.87 1029.71 2120.33 1033.25 2121.17 1037.2 2121.58 1040.94 2122 1045.1 2122 1045.1Z" stroke="#EEAD0E" stroke-width="10.3125" stroke-linejoin="round" stroke-miterlimit="10" fill="none" fill-rule="evenodd"/><path d="M2590 1045.1 2590 1045.1 2589.79 1049.06 2589.17 1053.01 2588.13 1056.54 2586.67 1060.08 2585.01 1063.62 2583.14 1066.94 2581.06 1069.86 2578.56 1072.56 2575.86 1075.06 2572.74 1077.14 2569.62 1079.01 2566.08 1080.67 2562.54 1082.13 2559.01 1083.17 2554.85 1083.79 2551.1 1084 2551.1 1084 2551.1 1084 2546.94 1083.79 2543.2 1083.17 2539.25 1082.13 2535.71 1080.67 2532.59 1079.01 2529.26 1077.14 2526.14 1075.06 2523.44 1072.56 2521.15 1069.86 2518.66 1066.94 2516.78 1063.62 2515.12 1060.08 2513.66 1056.54 2512.83 1053.01 2512.42 1049.06 2512 1045.1 2512 1045.1 2512 1045.1 2512.42 1040.94 2512.83 1037.2 2513.66 1033.25 2515.12 1029.71 2516.78 1026.59 2518.66 1023.26 2521.15 1020.35 2523.44 1017.44 2526.14 1015.15 2529.26 1012.86 2532.59 1010.78 2535.71 1009.12 2539.25 1008.08 2543.2 1006.83 2546.94 1006.42 2551.1 1006 2551.1 1006 2551.1 1006 2554.85 1006.42 2559.01 1006.83 2562.54 1008.08 2566.08 1009.12 2569.62 1010.78 2572.74 1012.86 2575.86 1015.15 2578.56 1017.44 2581.06 1020.35 2583.14 1023.26 2585.01 1026.59 2586.67 1029.71 2588.13 1033.25 2589.17 1037.2 2589.79 1040.94 2590 1045.1 2590 1045.1Z" stroke="#EEAD0E" stroke-width="10.3125" stroke-linejoin="round" stroke-miterlimit="10" fill="none" fill-rule="evenodd"/><path d="M2382 1018.9 2382 1018.9 2382 1022.23 2381.58 1025.57 2381.17 1028.7 2380.54 1032.04 2378.88 1038.3 2376.79 1044.14 2374.08 1049.78 2370.75 1055.41 2367.21 1060.21 2362.83 1064.8 2358.25 1068.98 2353.25 1072.73 2347.83 1076.07 2342.42 1078.78 2336.38 1081.08 2330.12 1082.75 2326.79 1083.17 2323.46 1083.37 2320.33 1083.79 2317 1084 2317 1084 2317 1084 2313.67 1083.79 2310.54 1083.37 2307.21 1083.17 2303.88 1082.75 2297.62 1081.08 2291.58 1078.78 2286.17 1076.07 2280.75 1072.73 2275.75 1068.98 2271.17 1064.8 2266.79 1060.21 2263.25 1055.41 2259.92 1049.78 2257.21 1044.14 2255.12 1038.3 2253.46 1032.04 2252.83 1028.7 2252.42 1025.57 2252 1022.23 2252 1018.9 2252 1018.9 2252 1018.9 2252 1015.35 2252.42 1012.22 2252.83 1008.88 2253.46 1005.75 2255.12 999.489 2257.21 993.647 2259.92 987.804 2263.25 982.587 2266.79 977.371 2271.17 972.78 2275.75 968.607 2280.75 964.851 2286.17 961.512 2291.58 958.799 2297.62 956.713 2303.88 955.252 2307.21 954.835 2310.54 954.209 2313.67 954 2317 954 2317 954 2317 954 2320.33 954 2323.46 954.209 2326.79 954.835 2330.12 955.252 2336.38 956.713 2342.42 958.799 2347.83 961.512 2353.25 964.851 2358.25 968.607 2362.83 972.78 2367.21 977.371 2370.75 982.587 2374.08 987.804 2376.79 993.647 2378.88 999.489 2380.54 1005.75 2381.17 1008.88 2381.58 1012.22 2382 1015.35 2382 1018.9 2382 1018.9Z" stroke="#EEAD0E" stroke-width="10.3125" stroke-linejoin="round" stroke-miterlimit="10" fill="none" fill-rule="evenodd"/></g></svg>