<svg width="556" height="530" xmlns="http://www.w3.org/2000/svg" xmlns:xlink="http://www.w3.org/1999/xlink" overflow="hidden"><defs><clipPath id="clip0"><rect x="2903" y="956" width="556" height="530"/></clipPath></defs><g clip-path="url(#clip0)" transform="translate(-2903 -956)"><rect x="2908" y="1270" width="94.9998" height="191" stroke="#EEAD0E" stroke-width="10.3125" stroke-linejoin="round" stroke-miterlimit="10" fill="none"/><path d="M3003 1424.61 3003 1424.61 3045.55 1438.86 3082.03 1451.64 3112.42 1462.11 3126.03 1466.47 3138.18 1470.54 3150.05 1473.44 3160.76 1476.35 3170.32 1478.67 3180.16 1479.84 3189.13 1481 3197.82 1481 3206.5 1480.71 3215.18 1479.55 3223.87 1477.8 3232.55 1475.48 3241.82 1472.28 3251.66 1468.5 3262.37 1464.14 3273.37 1458.62 3285.53 1452.81 3298.55 1446.41 3327.79 1430.43 3363.11 1411.83 3404.79 1390.03 3428.53 1377.82 3454 1364.74 3454 1364.74 3449.66 1360.09 3445.03 1356.02 3440.11 1352.24 3435.76 1349.34 3431.42 1346.72 3427.08 1343.81 3423.03 1342.36 3418.68 1340.62 3414.34 1339.16 3410 1338.58 3405.66 1338 3401.32 1338 3396.97 1338.29 3392.34 1338.58 3387.71 1339.45 3382.79 1340.91 3277.42 1375.78" stroke="#EEAD0E" stroke-width="10.3125" stroke-linejoin="round" stroke-miterlimit="10" fill="none" fill-rule="evenodd"/><path d="M3003 1294 3074.31 1294 3074.31 1294 3079.24 1294 3084.17 1294.29 3094.31 1295.16 3103.59 1297.19 3112.58 1299.79 3121.27 1302.69 3129.39 1305.59 3137.22 1309.35 3144.17 1313.41 3150.84 1317.17 3156.93 1320.94 3162.15 1324.99 3167.36 1329.05 3175.19 1336 3180.99 1341.5 3180.99 1341.5 3252.59 1341.5 3252.59 1341.5 3256.07 1341.5 3258.97 1342.08 3262.16 1342.37 3265.06 1343.53 3267.38 1344.4 3269.69 1345.84 3272.01 1347.29 3273.75 1348.74 3275.49 1350.48 3277.23 1352.51 3278.1 1354.53 3278.97 1356.56 3280.13 1358.59 3280.42 1360.91 3280.71 1362.93 3281 1365.25 3280.71 1367.57 3280.42 1369.59 3280.13 1371.91 3278.97 1373.94 3278.1 1375.97 3277.23 1377.99 3275.49 1380.02 3273.75 1381.76 3272.01 1383.21 3269.69 1384.66 3267.38 1386.1 3265.06 1386.97 3262.16 1387.55 3258.97 1388.42 3256.07 1389 3252.59 1389 3121.85 1389" stroke="#EEAD0E" stroke-width="10.3125" stroke-linejoin="round" stroke-miterlimit="10" fill="none" fill-rule="evenodd"/><path d="M3241 1032 3241 1032 3241.29 1039.5 3242.15 1046.43 3244.17 1053.36 3246.48 1059.71 3249.66 1066.06 3252.83 1071.83 3257.16 1077.6 3261.49 1082.51 3266.98 1087.13 3272.17 1091.17 3278.23 1094.92 3284.29 1097.8 3290.93 1100.11 3297.57 1101.85 3304.5 1102.71 3312 1103 3312 1103 3319.22 1102.71 3326.14 1101.85 3333.36 1100.11 3339.71 1097.8 3345.77 1094.92 3351.54 1091.17 3357.31 1087.13 3362.22 1082.51 3366.84 1077.6 3370.88 1071.83 3374.63 1066.06 3377.52 1059.71 3379.82 1053.36 3381.56 1046.43 3382.71 1039.5 3383 1032 3383 1032 3382.71 1024.78 3381.56 1017.86 3379.82 1011.22 3377.52 1004.58 3374.63 998.52 3370.88 992.459 3366.84 986.976 3362.22 982.069 3357.31 977.451 3351.54 973.411 3345.77 969.659 3339.71 966.772 3333.36 964.464 3326.14 962.443 3319.22 961.289 3312 961 3312 961 3304.5 961.289 3297.57 962.443 3290.93 964.464 3284.29 966.772 3278.23 969.659 3272.17 973.411 3266.98 977.451 3261.49 982.069 3257.16 986.976 3252.83 992.459 3249.66 998.52 3246.48 1004.58 3244.17 1011.22 3242.15 1017.86 3241.29 1024.78 3241 1032 3241 1032Z" stroke="#EEAD0E" stroke-width="10.3125" stroke-linejoin="round" stroke-miterlimit="10" fill="none" fill-rule="evenodd"/><path d="M3122 1198.65 3122 1198.65 3122.29 1205.61 3123.15 1212.86 3124.89 1219.82 3127.48 1226.49 3130.66 1232.29 3133.83 1238.38 3137.87 1243.89 3142.49 1248.83 3147.4 1253.47 3153.17 1257.53 3158.94 1261.3 3165.29 1264.2 3171.93 1266.52 3178.57 1268.26 3185.5 1269.71 3193 1270 3193 1270 3200.22 1269.71 3207.14 1268.26 3213.78 1266.52 3220.42 1264.2 3226.77 1261.3 3232.54 1257.53 3238.31 1253.47 3243.22 1248.83 3247.55 1243.89 3251.88 1238.38 3255.34 1232.29 3258.23 1226.49 3260.83 1219.82 3262.56 1212.86 3263.42 1205.61 3264 1198.65 3264 1198.65 3263.42 1191.1 3262.56 1184.14 3260.83 1177.18 3258.23 1170.8 3255.34 1164.42 3251.88 1158.33 3247.55 1153.11 3243.22 1147.88 3238.31 1143.24 3232.54 1139.18 3226.77 1135.7 3220.42 1132.51 3213.78 1130.19 3207.14 1128.45 3200.22 1127.58 3193 1127 3193 1127 3185.5 1127.58 3178.57 1128.45 3171.93 1130.19 3165.29 1132.51 3158.94 1135.7 3153.17 1139.18 3147.4 1143.24 3142.49 1147.88 3137.87 1153.11 3133.83 1158.33 3130.66 1164.42 3127.48 1170.8 3124.89 1177.18 3123.15 1184.14 3122.29 1191.1 3122 1198.65 3122 1198.65Z" stroke="#EEAD0E" stroke-width="10.3125" stroke-linejoin="round" stroke-miterlimit="10" fill="none" fill-rule="evenodd"/><path d="M3193 1175 3193 1223" stroke="#EEAD0E" stroke-width="10.3125" stroke-linejoin="round" stroke-miterlimit="10" fill="none" fill-rule="evenodd"/><path d="M3312 1008 3312 1056" stroke="#EEAD0E" stroke-width="10.3125" stroke-linejoin="round" stroke-miterlimit="10" fill="none" fill-rule="evenodd"/></g></svg>