<svg width="742" height="528" xmlns="http://www.w3.org/2000/svg" xmlns:xlink="http://www.w3.org/1999/xlink" overflow="hidden"><defs><clipPath id="clip0"><rect x="923" y="948" width="742" height="528"/></clipPath></defs><g clip-path="url(#clip0)" transform="translate(-923 -948)"><path d="M1095.03 952 1157.55 1014.12 1157.55 1014.12 1159.53 1016.58 1161.01 1019.05 1161.51 1021.51 1162 1024.47 1161.51 1027.43 1161.01 1029.89 1159.53 1032.85 1157.55 1034.82 1014.97 1177.06 1014.97 1177.06 1012.5 1179.03 1010.03 1180.01 1007.06 1181 1004.59 1181 1001.63 1181 998.661 1180.01 996.19 1179.03 993.719 1177.06 927 1110.5" stroke="#EEAD0E" stroke-width="10.3125" stroke-linejoin="round" stroke-miterlimit="10" fill="none" fill-rule="evenodd"/><path d="M1015 1176.91 1036.22 1197.57 1036.22 1197.57 1038.19 1199.54 1041.15 1201.02 1043.62 1202 1046.58 1202 1049.54 1202 1052 1201.02 1054.47 1199.54 1056.94 1197.57 1178.56 1077.3 1178.56 1077.3 1180.53 1074.84 1181.52 1072.38 1182.51 1069.43 1183 1066.97 1182.51 1064.02 1181.52 1061.07 1180.53 1058.61 1178.56 1056.15 1157.34 1035" stroke="#EEAD0E" stroke-width="10.3125" stroke-linejoin="round" stroke-miterlimit="10" fill="none" fill-rule="evenodd"/><path d="M1189 1348.5 1189 1348.5 1190 1348 1177 1360 1189 1348.5Z" stroke="#EEAD0E" stroke-width="10.3125" stroke-linejoin="round" stroke-miterlimit="10" fill="none" fill-rule="evenodd"/><path d="M1178 1077 1178 1077 1184.91 1082.18 1191.33 1086.13 1197.75 1089.1 1204.17 1091.57 1210.59 1092.55 1216.52 1093.54 1222.94 1094.03 1229.36 1094.03 1241.71 1094.03 1248.13 1094.53 1254.55 1095.02 1260.47 1096.01 1266.89 1097.49 1273.31 1100.45 1279.24 1103.91 1215.53 1136.49 1215.53 1136.49 1213.06 1138.47 1210.59 1139.95 1206.64 1143.9 1203.19 1148.84 1200.72 1154.27 1199.73 1159.7 1199.73 1165.63 1200.72 1171.06 1201.7 1174.02 1203.19 1176.98 1203.19 1176.98 1204.67 1179.45 1206.15 1181.92 1210.59 1185.87 1215.04 1189.32 1220.47 1191.79 1225.9 1192.78 1231.83 1192.78 1237.76 1191.79 1240.22 1190.81 1243.19 1189.82 1302.45 1157.73 1444.18 1291.03 1470.36 1315.72 1470.36 1315.72 1472.33 1318.19 1474.31 1320.66 1476.78 1325.6 1478.51 1331.52 1479 1336.95 1478.51 1342.63 1476.78 1348.06 1474.31 1353 1472.33 1355.47 1470.36 1357.93 1470.36 1357.93 1467.89 1359.91 1465.42 1361.88 1460.48 1364.35 1455.05 1365.83 1449.12 1366.82 1443.69 1365.83 1437.76 1364.35 1432.83 1361.88 1430.36 1359.91 1428.38 1357.93 1428.38 1357.93 1429.37 1358.92 1429.37 1358.92 1432.33 1363.86 1434.31 1368.8 1435.79 1374.23 1435.79 1379.17 1435.29 1384.6 1433.32 1390.03 1430.85 1394.47 1426.9 1398.91 1426.9 1398.91 1424.92 1400.89 1422.45 1402.86 1417.02 1405.33 1411.59 1407.31 1406.16 1407.8 1400.23 1407.31 1394.8 1405.33 1389.86 1402.86 1387.39 1400.89 1384.92 1398.91 1374.55 1388.55 1374.55 1388.55 1376.53 1390.52 1378.01 1392.99 1380.97 1398.42 1382.45 1403.85 1382.95 1409.78 1382.45 1415.21 1380.97 1420.64 1378.01 1426.07 1376.53 1428.54 1374.55 1430.51 1374.55 1430.51 1372.08 1432.49 1369.61 1434.46 1364.67 1437.43 1358.75 1438.91 1353.32 1439.4 1347.39 1438.91 1341.96 1437.43 1337.02 1434.46 1334.55 1432.49 1332.08 1430.51 1323.69 1422.12 1323.69 1422.12 1327.14 1427.06 1329.12 1431.99 1330.11 1437.43 1330.6 1442.36 1329.61 1447.79 1328.13 1453.23 1325.17 1457.67 1321.71 1462.11 1321.71 1462.11 1319.24 1464.09 1317.27 1466.06 1311.83 1468.53 1306.4 1470.51 1300.47 1471 1295.04 1470.51 1289.61 1468.53 1284.18 1466.06 1281.71 1464.09 1279.73 1462.11 1262.45 1444.83" stroke="#EEAD0E" stroke-width="10.3125" stroke-linejoin="round" stroke-miterlimit="10" fill="none" fill-rule="evenodd"/><path d="M1114 1255 1057 1198" stroke="#EEAD0E" stroke-width="10.3125" stroke-linejoin="round" stroke-miterlimit="10" fill="none" fill-rule="evenodd"/><path d="M1498.1 952 1436.46 1013.76 1436.46 1013.76 1434.48 1016.23 1432.99 1018.7 1432 1021.17 1432 1024.13 1432 1027.1 1432.99 1029.57 1434.48 1032.53 1436.46 1034.51 1579.3 1177.05 1579.3 1177.05 1581.28 1179.02 1584.25 1180.01 1586.73 1181 1589.7 1181 1592.67 1181 1595.15 1180.01 1598.12 1179.02 1600.1 1177.05 1661 1116.28" stroke="#EEAD0E" stroke-width="10.3125" stroke-linejoin="round" stroke-miterlimit="10" fill="none" fill-rule="evenodd"/><path d="M1579 1176.91 1557.78 1197.57 1557.78 1197.57 1555.32 1199.54 1552.85 1201.02 1550.38 1202 1547.42 1202 1544.96 1202 1542 1201.02 1539.53 1200.03 1537.06 1198.06 1537.06 1198.06 1536.57 1197.57 1536.07 1197.08 1444.55 1106.08 1444.55 1106.08 1442.58 1104.11 1415.44 1077.3 1415.44 1077.3 1413.47 1074.84 1411.99 1072.38 1411.49 1069.43 1411 1066.97 1411.49 1064.02 1411.99 1061.07 1413.47 1058.61 1415.44 1056.15 1436.66 1035" stroke="#EEAD0E" stroke-width="10.3125" stroke-linejoin="round" stroke-miterlimit="10" fill="none" fill-rule="evenodd"/><path d="M1279 1104 1279.49 1104 1285.41 1100.53 1285.41 1100.53 1292.31 1097.07 1299.7 1094.59 1307.09 1092.61 1314.49 1091.13 1322.37 1090.63 1329.76 1090.63 1337.65 1091.13 1345.04 1092.12 1345.54 1092.61 1345.54 1092.61 1352.44 1093.6 1359.83 1094.1 1366.73 1094.1 1373.63 1093.6 1381.02 1092.61 1387.92 1091.13 1394.33 1088.65 1401.23 1086.18 1417 1079" stroke="#EEAD0E" stroke-width="10.3125" stroke-linejoin="round" stroke-miterlimit="10" fill="none" fill-rule="evenodd"/><path d="M1536.01 1197 1536.51 1197.49 1536.51 1197.49 1537 1197.99 1444 1291" stroke="#EEAD0E" stroke-width="10.3125" stroke-linejoin="round" stroke-miterlimit="10" fill="none" fill-rule="evenodd"/><path d="M0 0 1.00003 0.999672" stroke="#EEAD0E" stroke-width="10.3125" stroke-linejoin="round" stroke-miterlimit="10" fill="none" fill-rule="evenodd" transform="matrix(1 0 0 -1 1417 1080)"/><path d="M1538 1197.5 1537.33 1198 1537.33 1198 1536.67 1197.5 1536 1197 1536 1197 1538 1197.5 1538 1197.5Z" stroke="#EEAD0E" stroke-width="10.3125" stroke-linejoin="round" stroke-miterlimit="10" fill="none" fill-rule="evenodd"/><path d="M1151.14 1303.19 1144.24 1309.65 1125.02 1327.05 1125.02 1327.05 1122.56 1329.04 1120.09 1331.02 1114.67 1333.51 1109.01 1335 1103.58 1335 1097.67 1334.5 1092.25 1332.51 1087.32 1329.53 1084.86 1327.54 1082.89 1325.06 1082.89 1325.06 1080.91 1323.07 1078.94 1320.59 1076.48 1315.12 1075 1309.65 1075 1303.69 1075.99 1298.22 1077.46 1292.75 1080.42 1287.28 1082.39 1285.3 1084.86 1282.81 1111.22 1258.95 1111.22 1258.95 1113.19 1257.46 1115.17 1255.97 1115.17 1255.97 1119.6 1253.49 1124.53 1251.99 1129.95 1251 1134.88 1251.5 1139.81 1252.49 1144.74 1254.48 1149.17 1257.46 1153.11 1260.94 1153.11 1260.94 1155.09 1263.43 1156.56 1265.91 1159.03 1271.38 1160.51 1276.85 1161 1282.81 1160.01 1288.28 1158.04 1293.75 1155.09 1298.72 1153.11 1301.2 1151.14 1303.19 1151.14 1303.19Z" stroke="#EEAD0E" stroke-width="10.3125" stroke-linejoin="round" stroke-miterlimit="10" fill="none" fill-rule="evenodd"/><path d="M1230.11 1393.2 1219.73 1402.5 1200.94 1419.16 1200.94 1419.16 1198.47 1421.12 1195.99 1422.59 1191.05 1425.04 1185.12 1426.51 1179.68 1427 1173.74 1426.02 1168.31 1424.06 1163.36 1421.12 1160.89 1419.16 1158.91 1417.2 1158.91 1417.2 1155.45 1412.3 1152.98 1407.4 1151.49 1402.01 1151 1396.63 1151.99 1390.75 1153.47 1385.85 1156.44 1380.46 1159.9 1376.05 1177.7 1360.37 1190.56 1348.61 1191.05 1348.61 1191.05 1348.61 1195.5 1345.18 1200.94 1342.73 1206.38 1342 1211.82 1342 1217.26 1342.24 1222.69 1344.2 1227.64 1347.14 1232.09 1351.06 1232.09 1351.06 1234.07 1353.51 1235.55 1355.96 1238.02 1361.35 1239.51 1366.74 1240 1372.62 1239.01 1378.01 1237.03 1383.4 1234.07 1388.3 1232.09 1390.75 1230.11 1393.2 1230.11 1393.2Z" stroke="#EEAD0E" stroke-width="10.3125" stroke-linejoin="round" stroke-miterlimit="10" fill="none" fill-rule="evenodd"/><path d="M1177 1360 1160 1376 1160 1376 1160.94 1375.5 1177 1360Z" stroke="#EEAD0E" stroke-width="10.3125" stroke-linejoin="round" stroke-miterlimit="10" fill="none" fill-rule="evenodd"/><path d="M1190 1348 1177 1360 1189 1348.5 1189 1348.5 1190 1348 1190 1348Z" stroke="#EEAD0E" stroke-width="10.3125" stroke-linejoin="round" stroke-miterlimit="10" fill="none" fill-rule="evenodd"/><path d="M1268.57 1438.77 1262.11 1444.69 1255.66 1450.11 1255.66 1450.11 1253.67 1452.08 1251.19 1453.56 1245.72 1456.03 1240.26 1457.51 1234.3 1458 1228.84 1457.01 1223.38 1455.04 1217.92 1452.08 1215.93 1450.11 1213.45 1448.14 1213.45 1448.14 1211.46 1445.67 1209.97 1443.21 1207.49 1437.78 1206 1432.36 1206 1426.94 1206.5 1421.02 1208.48 1415.6 1211.46 1410.67 1213.45 1408.2 1215.43 1406.23 1219.41 1402.78 1227.85 1394.89 1227.85 1394.89 1230.33 1392.92 1232.81 1391.44 1238.28 1388.48 1243.74 1387.49 1249.7 1387 1255.16 1387.99 1260.62 1389.96 1266.08 1392.92 1268.07 1394.4 1270.55 1396.86 1270.55 1396.86 1272.54 1399.33 1274.03 1401.79 1276.51 1406.72 1278 1412.64 1278 1418.06 1277.5 1423.98 1275.52 1429.4 1272.54 1434.33 1270.55 1436.8 1268.57 1438.77 1268.57 1438.77Z" stroke="#EEAD0E" stroke-width="10.3125" stroke-linejoin="round" stroke-miterlimit="10" fill="none" fill-rule="evenodd"/><path d="M1192.57 1346.84 1191.08 1348.33 1190.59 1348.33 1190.59 1348.33 1189.59 1348.83 1177.68 1360.24 1160.81 1375.62 1160.81 1375.62 1159.82 1376.12 1152.37 1383.06 1152.37 1383.06 1149.89 1385.05 1147.41 1387.03 1141.95 1389.51 1136.49 1391 1130.54 1391 1125.08 1390.5 1119.62 1388.52 1114.16 1385.54 1112.17 1383.56 1109.44 1381.08 1109.44 1381.08 1107.46 1379.09 1105.97 1376.61 1103.49 1371.16 1102 1365.7 1102 1359.74 1102.5 1354.29 1104.48 1348.83 1107.46 1343.37 1109.44 1341.64 1111.68 1339.16 1144.93 1309.39 1151.88 1302.94 1151.88 1302.94 1154.36 1300.95 1156.84 1298.97 1162.3 1296.49 1167.76 1295.5 1173.71 1295 1179.17 1295.99 1184.63 1297.48 1189.59 1300.46 1192.07 1302.44 1194.06 1304.92 1194.06 1304.92 1196.04 1306.91 1198.03 1309.39 1200.51 1314.84 1202 1320.8 1202 1326.26 1201.5 1332.21 1199.52 1337.67 1196.54 1342.38 1194.56 1344.86 1192.57 1346.84 1192.57 1346.84Z" stroke="#EEAD0E" stroke-width="10.3125" stroke-linejoin="round" stroke-miterlimit="10" fill="none" fill-rule="evenodd"/><path d="M1160.94 1375.5 1177 1360 1160 1376 1160 1376 1160.94 1375.5 1160.94 1375.5Z" stroke="#EEAD0E" stroke-width="10.3125" stroke-linejoin="round" stroke-miterlimit="10" fill="none" fill-rule="evenodd"/><path d="M1190 1348 1177 1360 1189 1348.5 1189 1348.5 1190 1348 1190 1348Z" stroke="#EEAD0E" stroke-width="10.3125" stroke-linejoin="round" stroke-miterlimit="10" fill="none" fill-rule="evenodd"/><path d="M1351 1366 1374 1389" stroke="#EEAD0E" stroke-width="10.3125" stroke-linejoin="round" stroke-miterlimit="10" fill="none" fill-rule="evenodd"/><path d="M1395 1326 1432 1362" stroke="#EEAD0E" stroke-width="10.3125" stroke-linejoin="round" stroke-miterlimit="10" fill="none" fill-rule="evenodd"/><path d="M1309 1408 1332 1431" stroke="#EEAD0E" stroke-width="10.3125" stroke-linejoin="round" stroke-miterlimit="10" fill="none" fill-rule="evenodd"/></g></svg>